<svg width="34" height="52" viewBox="0 0 34 46" fill="none" xmlns="http://www.w3.org/2000/svg">
<path fill-rule="evenodd" clip-rule="evenodd" d="M28 36.27V46H6V36.27C6 33.4864 9.5938 30.3086 12 29H22C24.4281 30.3316 28 33.5185 28 36.27Z" fill="#523874"/>
<path fill-rule="evenodd" clip-rule="evenodd" d="M11.3247 46H22.2839L24 30.3217C23.8019 30.1283 22 28.8827 22 29.0127L21.2999 36.7117L12.4171 37.0321L11.8065 29.0127C11.8065 29.0127 10.4215 29.8228 10 30.3217L11.3247 46Z" fill="#FFAA33"/>
<path fill-rule="evenodd" clip-rule="evenodd" d="M21.9979 29.1472C26.3157 27.6218 29.7265 24.1756 31.2036 19.8352C31.4477 19.9412 31.717 20 32 20C33.1046 20 34 19.1046 34 18V16C34 14.8954 33.1046 14 32 14L31.9672 14.0003C31.4528 6.18211 24.9483 0 17 0C9.05167 0 2.54724 6.18211 2.03279 14.0003C2.02188 14.0001 2.01095 14 2 14C0.89543 14 0 14.8954 0 16V18C0 19.1046 0.89543 20 2 20C2.28303 20 2.55233 19.9412 2.79635 19.8352C4.27348 24.1756 7.68425 27.6218 12.0021 29.1472C12.08 31.8406 14.2878 34 17 34C19.7122 34 21.92 31.8406 21.9979 29.1472Z" fill="#F1F1F1"/>
<path fill-rule="evenodd" clip-rule="evenodd" d="M15.3811 26.3477C14.7798 26.0925 14.4313 25.4912 14.4694 24.8744L15.1722 23L17.9337 24.1722L17.0737 25.9798C16.6565 26.4357 15.9821 26.6029 15.3811 26.3477Z" fill="#E18071"/>
<path fill-rule="evenodd" clip-rule="evenodd" d="M13 21.9997C13 23.6568 11.6571 25 10.0007 25C8.34353 25 7 23.6568 7 21.9997C7 20.3432 8.34353 19 10.0007 19C11.6571 19 13 20.3432 13 21.9997Z" fill="#EFA89D"/>
<path fill-rule="evenodd" clip-rule="evenodd" d="M27 21.9997C27 23.6568 25.6571 25 24.0007 25C22.3435 25 21 23.6568 21 21.9997C21 20.3432 22.3435 19 24.0007 19C25.6571 19 27 20.3432 27 21.9997Z" fill="#EFA89D"/>
<path d="M17.8239 17.5337C17.5537 17.5905 17.2886 17.4174 17.2318 17.1472C17.175 16.877 17.348 16.6119 17.6183 16.5551C18.2906 16.4138 18.8527 16.5225 19.1622 17.0416C19.7634 18.0515 19.554 19.2152 18.606 20.0213C18.0549 20.4897 17.2815 20.6578 16.7412 20.331C16.5049 20.1881 16.4293 19.8807 16.5722 19.6444C16.7151 19.4081 17.0225 19.3324 17.2588 19.4754C17.377 19.5469 17.7036 19.4759 17.9582 19.2595C18.5388 18.7658 18.6516 18.1388 18.3031 17.5534C18.2703 17.4984 18.1254 17.4703 17.8239 17.5337Z" fill="#262626"/>
<path d="M20.5149 15.8786C20.448 16.1465 20.6108 16.418 20.8787 16.485C21.1466 16.5519 21.4181 16.389 21.4851 16.1211C21.7677 14.9906 22.2584 14.4999 23 14.4999C23.7416 14.4999 24.2323 14.9906 24.5149 16.1211C24.5819 16.389 24.8534 16.5519 25.1213 16.485C25.3892 16.418 25.552 16.1465 25.4851 15.8786C25.101 14.3425 24.2584 13.4999 23 13.4999C21.7416 13.4999 20.899 14.3425 20.5149 15.8786Z" fill="#262626"/>
<path fill-rule="evenodd" clip-rule="evenodd" d="M11.507 16.9966C10.1288 17.0869 9.743 15.3399 10.1583 14.2008C10.2364 13.9837 10.6926 13 11.5003 13C12.307 13 12.6633 13.5381 12.7128 13.6307C13.3062 14.7424 13.0157 16.8995 11.507 16.9966Z" fill="#262626"/>
<path d="M19.4472 23.2236C19.5707 22.9766 19.4706 22.6763 19.2236 22.5528C18.9766 22.4293 18.6763 22.5294 18.5528 22.7764C18.313 23.256 17.825 23.5 17 23.5C16.175 23.5 15.687 23.256 15.4472 22.7764C15.3237 22.5294 15.0234 22.4293 14.7764 22.5528C14.5294 22.6763 14.4293 22.9766 14.5528 23.2236C14.9796 24.0773 15.825 24.5 17 24.5C18.175 24.5 19.0204 24.0773 19.4472 23.2236Z" fill="#262626"/>
<path fill-rule="evenodd" clip-rule="evenodd" d="M14.0785 5.6846C13.7673 5.88423 13.3972 6 13 6C11.8954 6 11 5.10457 11 4C11 2.89543 11.8954 2 13 2C13 0.89543 13.8954 0 15 0C16.1046 0 17 0.89543 17 2C17 0.89543 17.8954 0 19 0C20.1046 0 21 0.89543 21 2C22.1046 2 23 2.89543 23 4C23 5.10457 22.1046 6 21 6C20.6028 6 20.2327 5.88423 19.9215 5.6846C19.6118 7.01158 18.4213 8 17 8C15.5787 8 14.3882 7.01158 14.0785 5.6846Z" fill="#262626"/>
</svg>
