<svg width="34" height="52" viewBox="0 0 68 104" fill="none" xmlns="http://www.w3.org/2000/svg">
<path fill-rule="evenodd" clip-rule="evenodd" d="M53.1554 49.4684C51.44 55.0355 48.0816 59.6565 43.7776 62.4845L43.998 64.9637L43.9968 65.0645L41.6702 85.5H26.9144L26.8531 85.0707L24.0004 65.0293L24.1061 62.5227C19.7804 59.7022 16.403 55.0735 14.6777 49.4917C14.6192 49.4972 14.56 49.5 14.5 49.5C13.3841 49.5 12.5 48.5247 12.5 47.3433V40.6577C12.5 39.8657 12.8972 39.166 13.4952 38.7907C14.4282 26.3095 23.193 16.5 33.9126 16.5C44.6032 16.5 53.3504 26.2566 54.3231 38.6895C55.0214 39.029 55.5 39.7873 55.5 40.6577V47.3433C55.5 48.5253 54.6172 49.5 53.5 49.5C53.3823 49.5 53.2672 49.4892 53.1554 49.4684Z" fill="#F1F1F1"/>
<path fill-rule="evenodd" clip-rule="evenodd" d="M43.2579 63.1763C43.174 67.639 39.0612 72.2174 34 72.2174C28.9167 72.2174 24.7902 67.599 24.7412 63.118C22.1074 63.7856 18.0869 65.799 14.7686 69.1637C11.5551 72.422 9 77.3197 9 81.1191V104H59V81.1191C59 77.312 56.3898 72.406 53.1169 69.1439C49.8441 65.8819 45.9086 63.8957 43.2579 63.1763Z" fill="#0056B4"/>
<path fill-rule="evenodd" clip-rule="evenodd" d="M24.5749 63.273C22.1489 64.1538 18.0789 66.079 15 69.0027C6 67 2 62.241 2 62.241C2 62.241 10.2919 54.153 10.2969 40.007V39.992C10.2969 23.428 19.2393 12 33.972 12C48.7067 12 57.6491 23.428 57.6491 39.992H57.7021C57.7021 54.148 66 62.241 66 62.241C66 62.241 62 67 53 69L52.9864 69.0027C50.0126 66.2974 45.6995 64.2108 43.353 63.3287L43.3557 63.3278L43.2625 62.2792L43.3129 62.1923C47.7404 59.3602 51.1759 54.589 52.8322 48.8238C53.035 48.9365 53.264 49 53.5063 49C54.3355 49 55.0065 48.2599 55.0065 47.3433V40.6577C55.0065 39.8734 54.5153 39.2176 53.854 39.0446C53.8534 39.0356 53.8528 39.0265 53.8522 39.0175C32.9189 41.3534 25.3783 27.0009 24.7594 27C24.7594 27 17.8075 32 14.4849 37.9447C14.4849 37.9447 13.9785 39.0669 13.9761 39.1047C13.4073 39.3399 13.0015 39.9458 13.0015 40.6577V47.3433C13.0015 48.2599 13.6743 49 14.5017 49C14.6851 49 14.8607 48.9638 15.0231 48.8975C16.6976 54.6655 20.1549 59.4315 24.6032 62.245L24.6197 62.2792L24.5778 63.273H24.5749Z" fill="#D05C4A"/>
<path fill-rule="evenodd" clip-rule="evenodd" d="M26.8504 43.8711C25.5582 43.9757 25.1966 41.9298 25.5859 40.5936C25.6591 40.3404 26.0869 39.1875 26.8441 39.1875C27.6005 39.1875 27.9345 39.8177 27.9809 39.9261C28.5373 41.2286 28.264 43.756 26.8504 43.8711Z" fill="#262626"/>
<path fill-rule="evenodd" clip-rule="evenodd" d="M41.8371 43.8711C43.1293 43.9757 43.4909 41.9298 43.1016 40.5936C43.0284 40.3404 42.6006 39.1875 41.8434 39.1875C41.087 39.1875 40.753 39.8177 40.7066 39.9261C40.1502 41.2286 40.4235 43.756 41.8371 43.8711Z" fill="#262626"/>
<path d="M34.8227 45.8874C35.5955 45.755 36.1232 45.8381 36.3122 46.0962C37.0255 47.0717 36.7974 48.1038 35.5735 48.951C34.93 49.3963 34.0443 49.553 33.5754 49.3221C33.3461 49.2092 33.0779 49.3245 32.9765 49.5796C32.875 49.8348 32.9786 50.1331 33.2079 50.246C33.9829 50.6277 35.1747 50.4168 36.0531 49.8089C37.7163 48.6576 38.0969 46.936 37.0163 45.4583C36.559 44.8338 35.7496 44.7064 34.6846 44.8888C34.4368 44.9313 34.2668 45.1892 34.3049 45.465C34.3431 45.7407 34.5749 45.9298 34.8227 45.8874Z" fill="#262626"/>
<path d="M40.4107 52.5918C40.3653 52.688 40.2612 52.8721 40.094 53.1147C39.8108 53.5252 39.4553 53.9368 39.0235 54.3206C37.7367 55.4644 36.0618 56.1258 33.9302 56.0653C31.8517 56.0063 30.1843 55.3551 28.877 54.3051C28.397 53.9195 28.0008 53.5067 27.684 53.0951C27.4973 52.8524 27.3806 52.6684 27.3296 52.5725C27.2069 52.3419 26.9054 52.2469 26.6561 52.3604C26.4068 52.474 26.3041 52.7529 26.4268 52.9836C26.5007 53.1225 26.6445 53.3494 26.8644 53.6351C27.2253 54.104 27.6741 54.5717 28.2173 55.008C29.693 56.1934 31.579 56.9299 33.8993 56.9957C36.3156 57.0643 38.2473 56.3015 39.7206 54.9919C40.2133 54.554 40.6182 54.0852 40.9422 53.6153C41.1393 53.3296 41.2674 53.1029 41.3328 52.9643C41.444 52.7287 41.3277 52.4544 41.0731 52.3515C40.8184 52.2486 40.5219 52.3562 40.4107 52.5918Z" fill="#262626"/>
</svg>
