<svg width="34" height="52" viewBox="0 0 68 104" fill="none" xmlns="http://www.w3.org/2000/svg">
<path fill-rule="evenodd" clip-rule="evenodd" d="M53.7236 46.0404C52.009 51.8692 48.5141 56.7136 44.005 59.651L44.2305 62.166L44.2293 62.2683L41.8486 83H26.7496L26.6869 82.5644L23.7679 62.2326L23.876 59.6897C19.3661 56.7743 15.8636 51.9547 14.1303 46.1482C13.8174 46.3571 13.4466 46.4783 13.0465 46.4783C11.9046 46.4783 11 45.4889 11 44.2903V37.5078C11 36.3107 11.9023 35.3214 13.0421 35.3188C14.1126 22.7974 23.027 13 33.9105 13C44.7964 13 53.7129 22.8016 54.7806 35.3265C54.8376 35.3214 54.8952 35.3188 54.9535 35.3188C56.0966 35.3188 57 36.3085 57 37.5078V44.2903C57 45.4894 56.0966 46.4783 54.9535 46.4783C54.4894 46.4783 54.0645 46.3148 53.7236 46.0404Z" fill="#F1F1F1"/>
<path fill-rule="evenodd" clip-rule="evenodd" d="M43.9986 60.3281C43.9079 65.1022 39.4661 70 34 70C28.5101 70 24.0534 65.0595 24.0005 60.2658C21.156 60.98 16.8139 63.1338 13.23 66.7333C9.75951 70.2189 7 75.4583 7 79.5228V104H61V79.5228C61 75.4501 58.181 70.2017 54.6463 66.7121C51.1116 63.2225 46.8613 61.0978 43.9986 60.3281Z" fill="#0056B4"/>
<path fill-rule="evenodd" clip-rule="evenodd" d="M13.0003 36.9294C13.7097 37.9269 14.0006 38.0739 14.0006 37.973V35.9318C13.8534 30.3814 15.5375 28.2497 17.1625 26.2919C17.1625 26.2919 16.175 30.5565 16.8619 29.6696C20.7514 24.6621 38.7655 28.0917 42.5027 21.6295C42.9727 25.1871 38.2571 26.2599 38.2571 26.2599C42.0165 26.9549 45.2735 25.478 46.1561 23.7242C46.4466 25.1541 45.554 26.103 44.2477 27.0808C48.8685 26.2279 48.9431 23.1243 48.9431 23.1243C49.6008 27.2408 53.6619 26.8715 54.3376 32.3992C55.0133 36.9294 54.3376 37.9479 55.0133 37.9479C55.0133 37.9479 56.0136 36.9294 56.007 33.9361C56.007 17.2635 48.9431 8 34.007 8C20.0827 8 12.0071 17.2635 12.0071 32.0843C12 35.0082 13.0003 36.9294 13.0003 36.9294Z" fill="#FFAA33"/>
<path fill-rule="evenodd" clip-rule="evenodd" d="M26.5071 39.2957C25.1288 39.4128 24.743 37.1214 25.1583 35.6249C25.2364 35.3413 25.6927 34.05 26.5004 34.05C27.3072 34.05 27.6634 34.7558 27.713 34.8772C28.3064 36.3361 28.0149 39.1668 26.5071 39.2957Z" fill="#262626"/>
<path fill-rule="evenodd" clip-rule="evenodd" d="M42.4929 39.2957C43.8712 39.4128 44.257 37.1214 43.8417 35.6249C43.7636 35.3413 43.3073 34.05 42.4996 34.05C41.6928 34.05 41.3366 34.7558 41.287 34.8772C40.6936 36.3361 40.9851 39.1668 42.4929 39.2957Z" fill="#262626"/>
<path d="M35.0109 41.5539C35.8351 41.4056 36.3981 41.4987 36.5997 41.7877C37.3606 42.8803 37.1172 44.0362 35.8117 44.9851C35.1253 45.4839 34.1806 45.6594 33.6804 45.4008C33.4358 45.2743 33.1498 45.4035 33.0416 45.6892C32.9333 45.9749 33.0438 46.3091 33.2884 46.4356C34.1151 46.863 35.3863 46.6268 36.3233 45.946C38.0974 44.6565 38.5034 42.7283 37.3507 41.0732C36.863 40.3739 35.9995 40.2312 34.8636 40.4355C34.5992 40.483 34.4179 40.7719 34.4586 41.0808C34.4993 41.3896 34.7466 41.6014 35.0109 41.5539Z" fill="#262626"/>
<path d="M40.9714 49.0629C40.923 49.1706 40.812 49.3768 40.6336 49.6484C40.3316 50.1082 39.9523 50.5692 39.4917 50.9991C38.1191 52.2801 36.3326 53.0209 34.0588 52.9531C31.8418 52.8871 30.0632 52.1577 28.6688 50.9817C28.1568 50.5499 27.7342 50.0875 27.3963 49.6265C27.1971 49.3547 27.0727 49.1486 27.0183 49.0413C26.8874 48.7829 26.5657 48.6766 26.2998 48.8037C26.0339 48.9308 25.9244 49.2433 26.0553 49.5016C26.1341 49.6572 26.2875 49.9114 26.522 50.2313C26.907 50.7565 27.3858 51.2803 27.9651 51.769C29.5393 53.0966 31.5509 53.9215 34.0259 53.9952C36.6033 54.072 38.6637 53.2177 40.2353 51.7509C40.7608 51.2605 41.1928 50.7354 41.5384 50.2092C41.7486 49.8892 41.8853 49.6353 41.955 49.48C42.0736 49.2162 41.9496 48.9089 41.6779 48.7937C41.4063 48.6785 41.09 48.799 40.9714 49.0629Z" fill="#262626"/>
<path fill-rule="evenodd" clip-rule="evenodd" d="M26 51.2143C26 49.4392 29.5816 49 34 49C38.4184 49 42 49.4392 42 51.2143C42 52.9894 39.7876 56.6551 34 56.6551C28.2124 56.6551 26 52.9894 26 51.2143ZM33.7606 46.952C30.6645 46.952 29.0194 47.8446 24.4966 49.0956C18.0693 50.8735 15.1 45.8931 14.05 41C13.4475 38.1925 13 39.3733 13 39.3733C13 58.5529 25.8116 65.0287 34.1705 65.0287C42.6612 65.0287 55 58.7992 55 39C55 38.5595 54.1501 38.7763 54 39.3733C53.1176 42.8823 54.1133 51.8134 42.7306 49.0956C38.7457 47.4157 36.8568 46.952 33.7606 46.952Z" fill="#FFAA33"/>
</svg>
