<svg width="24" height="24" viewBox="0 0 24 24" fill="none" xmlns="http://www.w3.org/2000/svg">
<path fill-rule="evenodd" clip-rule="evenodd" d="M2.901 4.0101C8.89 2.7901 15.107 2.7891 21.101 4.0101C22.727 4.3431 24 5.8751 24 7.5001V9.0001C24 10.3781 22.879 11.4991 21.5 11.5001H18.5C17.838 11.5001 17.212 11.2391 16.737 10.7631C16.262 10.2881 16 9.6621 16 9.0001V8.4551C13.369 8.2221 10.635 8.2221 8 8.4551V9.0001C8 10.3781 6.879 11.5001 5.501 11.5001H2.5C1.122 11.4991 0 10.3781 0 9.0001V7.5001C0 5.8751 1.273 4.3431 2.901 4.0101ZM13.97 12.0631V10.5001C13.97 10.2241 13.746 10.0001 13.47 10.0001C13.194 10.0001 12.97 10.2241 12.97 10.5001V12.0001H11V10.5001C11 10.2241 10.777 10.0001 10.5 10.0001C10.225 10.0001 10 10.2241 10 10.5001V12.0251C5.547 12.2861 2 15.9811 2 20.5001V23.5001C2 23.7761 2.225 24.0001 2.5 24.0001H21.5C21.777 24.0001 22 23.7761 22 23.5001V20.5001C21.97 15.9931 18.97 11.9931 13.97 12.0631ZM12 22.0001C9.795 22.0001 8 20.2061 8 18.0001C8 15.7941 9.795 14.0001 12 14.0001C14.206 14.0001 16 15.7941 16 18.0001C16 20.2061 14.206 22.0001 12 22.0001Z" fill="#6A6A6A"/>
</svg>
