<svg width="26" height="26" viewBox="0 0 26 26" fill="none" xmlns="http://www.w3.org/2000/svg">
<path fill-rule="evenodd" clip-rule="evenodd" d="M11.2111 3.57771C11.9482 2.10361 14.0518 2.10361 14.7889 3.57771L24.5528 23.1056C25.2177 24.4354 24.2507 26 22.7639 26H3.23607C1.7493 26 0.782313 24.4354 1.44721 23.1056L11.2111 3.57771Z" fill="white"/>
<path fill-rule="evenodd" clip-rule="evenodd" d="M13.0272 21.9998C13.0182 21.9998 13.0092 21.9998 13.0002 21.9998C12.1827 21.9998 11.5137 21.3459 11.5003 20.5269C11.4853 19.699 12.1452 19.015 12.9732 19.0015C12.9822 19.0015 12.9912 19 13.0002 19C13.8176 19 14.4851 19.6555 14.5001 20.4744C14.5151 21.3024 13.8536 21.9848 13.0272 21.9998Z" fill="#3E3832"/>
<path d="M13 8C13.5523 8 14 8.44772 14 9V16C14 16.5523 13.5523 17 13 17C12.4477 17 12 16.5523 12 16V9C12 8.44772 12.4477 8 13 8Z" fill="#3E3832"/>
</svg>